<?xml version="1.0" encoding="UTF-8" standalone="no"?>
<!-- Generator: Adobe Illustrator 19.1.0, SVG Export Plug-In . SVG Version: 6.00 Build 0)  -->

<svg
   xmlns:dc="http://purl.org/dc/elements/1.1/"
   xmlns:cc="http://creativecommons.org/ns#"
   xmlns:rdf="http://www.w3.org/1999/02/22-rdf-syntax-ns#"
   xmlns:svg="http://www.w3.org/2000/svg"
   xmlns="http://www.w3.org/2000/svg"
   xmlns:sodipodi="http://sodipodi.sourceforge.net/DTD/sodipodi-0.dtd"
   xmlns:inkscape="http://www.inkscape.org/namespaces/inkscape"
   version="1.1"
   id="Layer_2"
   x="0px"
   y="0px"
   viewBox="0 0 64 64"
   style="enable-background:new 0 0 64 64;"
   xml:space="preserve"
   sodipodi:docname="drop.svg"
   inkscape:version="0.92.5 (2060ec1f9f, 2020-04-08)"><metadata
   id="metadata11"><rdf:RDF><cc:Work
       rdf:about=""><dc:format>image/svg+xml</dc:format><dc:type
         rdf:resource="http://purl.org/dc/dcmitype/StillImage" /></cc:Work></rdf:RDF></metadata><defs
   id="defs9" /><sodipodi:namedview
   pagecolor="#ffffff"
   bordercolor="#666666"
   borderopacity="1"
   objecttolerance="10"
   gridtolerance="10"
   guidetolerance="10"
   inkscape:pageopacity="0"
   inkscape:pageshadow="2"
   inkscape:window-width="1920"
   inkscape:window-height="1024"
   id="namedview7"
   showgrid="false"
   inkscape:zoom="3.6875"
   inkscape:cx="32"
   inkscape:cy="32"
   inkscape:window-x="0"
   inkscape:window-y="28"
   inkscape:window-maximized="1"
   inkscape:current-layer="Layer_2" />
<style
   type="text/css"
   id="style2">
	.st0{fill:#202020;}
</style>
<path
   class="st0"
   d="m 32,63.210938 c -11.607953,0 -21.069898,-9.657037 -21.069898,-21.460081 0,-0.48773 0,-1.073004 0.09755,-1.658279 0.09755,-1.755825 0.487729,-3.51165 0.975458,-5.072383 C 15.904939,21.071142 29.853992,3.4153476 30.439267,2.7325269 L 32,0.78161038 33.463187,2.634981 c 0.585275,0.7803666 14.534328,18.436161 18.533707,32.385214 0.487729,1.560733 0.877912,3.316558 0.975458,5.072383 0.09755,0.585275 0.09755,1.170549 0.09755,1.658279 0,11.803044 -9.461945,21.460081 -21.069898,21.460081 z M 32,7.0245431 C 28.293259,11.99938 18.733768,25.460704 15.709847,36.093199 c -0.487729,1.463187 -0.780366,2.828829 -0.877912,4.292016 0,0.487729 -0.09755,0.975458 -0.09755,1.365642 0,9.754582 7.70612,17.655794 17.265611,17.655794 9.559491,0 17.265611,-7.901212 17.265611,-17.655794 0,-0.390184 0,-0.780367 -0.09755,-1.268096 v 0 C 49.070519,39.019574 48.777882,37.556386 48.387698,36.28829 45.266232,25.460704 35.706741,11.99938 32,7.0245431 Z"
   id="path4"
   style="fill:#202020;stroke:#000000;stroke-width:0.97545826;stroke-opacity:1"
   inkscape:connector-curvature="0" />
</svg>