<?xml version="1.0" encoding="UTF-8" standalone="no"?>
<!-- Generator: Adobe Illustrator 19.1.0, SVG Export Plug-In . SVG Version: 6.00 Build 0)  -->

<svg
   xmlns:dc="http://purl.org/dc/elements/1.1/"
   xmlns:cc="http://creativecommons.org/ns#"
   xmlns:rdf="http://www.w3.org/1999/02/22-rdf-syntax-ns#"
   xmlns:svg="http://www.w3.org/2000/svg"
   xmlns="http://www.w3.org/2000/svg"
   xmlns:sodipodi="http://sodipodi.sourceforge.net/DTD/sodipodi-0.dtd"
   xmlns:inkscape="http://www.inkscape.org/namespaces/inkscape"
   version="1.1"
   id="Layer_2"
   x="0px"
   y="0px"
   viewBox="0 0 64 64"
   style="enable-background:new 0 0 64 64;"
   xml:space="preserve"
   sodipodi:docname="location2.svg"
   inkscape:version="0.92.5 (2060ec1f9f, 2020-04-08)"><metadata
   id="metadata11"><rdf:RDF><cc:Work
       rdf:about=""><dc:format>image/svg+xml</dc:format><dc:type
         rdf:resource="http://purl.org/dc/dcmitype/StillImage" /><dc:title></dc:title></cc:Work></rdf:RDF></metadata><defs
   id="defs9" /><sodipodi:namedview
   pagecolor="#ffffff"
   bordercolor="#666666"
   borderopacity="1"
   objecttolerance="10"
   gridtolerance="10"
   guidetolerance="10"
   inkscape:pageopacity="0"
   inkscape:pageshadow="2"
   inkscape:window-width="1920"
   inkscape:window-height="1024"
   id="namedview7"
   showgrid="false"
   inkscape:zoom="3.6875"
   inkscape:cx="32"
   inkscape:cy="32"
   inkscape:window-x="0"
   inkscape:window-y="28"
   inkscape:window-maximized="1"
   inkscape:current-layer="Layer_2" />
<style
   type="text/css"
   id="style2">
	.st0{fill:#202020;}
</style>
<path
   class="st0"
   d="m 32,1.3269061 c 11.406556,0 20.704338,9.4894879 20.704338,21.0877519 0,0.479267 0,1.054387 -0.09585,1.629508 -0.09585,1.725361 -0.479267,3.450723 -0.958534,4.984377 C 47.815814,42.735582 34.108775,60.08505 33.533655,60.756024 L 32,62.673092 30.562199,60.851877 C 29.987078,60.08505 16.28004,42.735582 12.35005,29.028543 11.870783,27.494889 11.487369,25.769527 11.391516,24.044166 11.295662,23.469045 11.295662,22.893925 11.295662,22.414658 11.295662,10.816394 20.593444,1.3269061 32,1.3269061 Z m 0,55.2115679 c 3.64243,-4.888525 13.036065,-18.116296 16.00752,-28.564318 0.479267,-1.437802 0.766828,-2.779749 0.862681,-4.217551 0,-0.479267 0.09585,-0.958534 0.09585,-1.341947 0,-9.585342 -7.57242,-17.3494687 -16.966055,-17.3494687 -9.393635,0 -16.966055,7.7641267 -16.966055,17.3494687 0,0.383413 0,0.766827 0.09585,1.246094 v 0 c 0.09585,1.437801 0.383414,2.875602 0.766827,4.121697 C 18.963935,38.422178 28.35757,51.649949 32,56.538474 Z"
   id="path4"
   inkscape:connector-curvature="0"
   style="fill:#202020;stroke:#000000;stroke-width:1.34194779;stroke-linecap:square;stroke-linejoin:round;stroke-miterlimit:4;stroke-dasharray:none;stroke-opacity:1;paint-order:stroke fill markers" />
<rect
   style="opacity:1;fill:#000000;fill-opacity:1;stroke:none;stroke-width:3.56610179;stroke-miterlimit:4;stroke-dasharray:none;stroke-opacity:0.00229361;paint-order:normal"
   id="rect818"
   width="17.830509"
   height="17.830509"
   x="23.084736"
   y="12.984747"
   ry="8.9152546" /></svg>