<svg xmlns="http://www.w3.org/2000/svg" width="32" height="32" fill="none" viewBox="0 0 32 32">
  <path fill="url(#a)" fill-rule="evenodd" d="m17.168 16.445 1.664 1.11L15.868 22h5.088l-5.479 7.585-1.621-1.17L17.044 24h-4.912l5.036-7.555Z" clip-rule="evenodd"/>
  <path fill="url(#b)" fill-rule="evenodd" d="M10 23.665C5.402 22.46 2 18.142 2 13 2 6.925 6.75 2 12.608 2c4.861 0 8.958 3.39 10.213 8.014.142-.01.284-.014.428-.014C26.978 10 30 13.134 30 17s-3.022 7-6.75 7c-.084 0-.167-.002-.25-.005V22h.303C25.836 21.97 28 19.81 28 17c0-2.83-2.195-5-4.75-5a4.54 4.54 0 0 0-2.04.486 9.247 9.247 0 0 0-.25-1.696l-.003.001C20.009 6.85 16.584 4 12.608 4 7.922 4 4 7.96 4 13c0 4.066 2.553 7.43 6 8.577v2.088Z" clip-rule="evenodd"/>
  <defs>
    <linearGradient id="a" x1="16.544" x2="16.544" y1="16.445" y2="29.585" gradientUnits="userSpaceOnUse">
      <stop stop-color="#F5BD52"/>
      <stop offset="1" stop-color="#F5DA79"/>
    </linearGradient>
    <linearGradient id="b" x1="16" x2="16" y1="2" y2="24" gradientUnits="userSpaceOnUse">
      <stop stop-color="#95B6F6"/>
      <stop offset="1" stop-color="#5193DE"/>
    </linearGradient>
  </defs>
</svg>
